<?xml version="1.0" encoding="utf-8" standalone="no"?>
<!DOCTYPE svg PUBLIC "-//W3C//DTD SVG 1.1//EN"
  "http://www.w3.org/Graphics/SVG/1.1/DTD/svg11.dtd">
<svg xmlns:xlink="http://www.w3.org/1999/xlink" width="720pt" height="360pt" viewBox="0 0 720 360" xmlns="http://www.w3.org/2000/svg" version="1.1">
 <metadata>
  <rdf:RDF xmlns:dc="http://purl.org/dc/elements/1.1/" xmlns:cc="http://creativecommons.org/ns#" xmlns:rdf="http://www.w3.org/1999/02/22-rdf-syntax-ns#">
   <cc:Work>
    <dc:type rdf:resource="http://purl.org/dc/dcmitype/StillImage"/>
    <dc:date>2025-01-17T19:42:22.421169</dc:date>
    <dc:format>image/svg+xml</dc:format>
    <dc:creator>
     <cc:Agent>
      <dc:title>Matplotlib v3.9.2, https://matplotlib.org/</dc:title>
     </cc:Agent>
    </dc:creator>
   </cc:Work>
  </rdf:RDF>
 </metadata>
 <defs>
  <style type="text/css">*{stroke-linejoin: round; stroke-linecap: butt}</style>
 </defs>
 <g id="figure_1">
  <g id="patch_1">
   <path d="M 0 360 
L 720 360 
L 720 0 
L 0 0 
z
" style="fill: #ffffff"/>
  </g>
  <g id="axes_1">
   <g id="patch_2">
    <path d="M 49.39 115.287587 
L 178.921334 115.287587 
L 178.921334 35.005498 
L 49.39 35.005498 
z
" style="fill: #ffffff"/>
   </g>
   <g id="matplotlib.axis_1">
    <g id="xtick_1">
     <g id="line2d_1">
      <defs>
       <path id="m04e4b8a39d" d="M 0 0 
L 0 3.5 
" style="stroke: #000000; stroke-width: 0.8"/>
      </defs>
      <g>
       <use xlink:href="#m04e4b8a39d" x="55.159914" y="115.287587" style="stroke: #000000; stroke-width: 0.8"/>
      </g>
     </g>
     <g id="text_1">
      <!-- 0 -->
      <g transform="translate(51.978664 129.886024) scale(0.1 -0.1)">
       <defs>
        <path id="DejaVuSans-30" d="M 2034 4250 
Q 1547 4250 1301 3770 
Q 1056 3291 1056 2328 
Q 1056 1369 1301 889 
Q 1547 409 2034 409 
Q 2525 409 2770 889 
Q 3016 1369 3016 2328 
Q 3016 3291 2770 3770 
Q 2525 4250 2034 4250 
z
M 2034 4750 
Q 2819 4750 3233 4129 
Q 3647 3509 3647 2328 
Q 3647 1150 3233 529 
Q 2819 -91 2034 -91 
Q 1250 -91 836 529 
Q 422 1150 422 2328 
Q 422 3509 836 4129 
Q 1250 4750 2034 4750 
z
" transform="scale(0.015625)"/>
       </defs>
       <use xlink:href="#DejaVuSans-30"/>
      </g>
     </g>
    </g>
    <g id="xtick_2">
     <g id="line2d_2">
      <g>
       <use xlink:href="#m04e4b8a39d" x="114.09673" y="115.287587" style="stroke: #000000; stroke-width: 0.8"/>
      </g>
     </g>
     <g id="text_2">
      <!-- 50 -->
      <g transform="translate(107.73423 129.886024) scale(0.1 -0.1)">
       <defs>
        <path id="DejaVuSans-35" d="M 691 4666 
L 3169 4666 
L 3169 4134 
L 1269 4134 
L 1269 2991 
Q 1406 3038 1543 3061 
Q 1681 3084 1819 3084 
Q 2600 3084 3056 2656 
Q 3513 2228 3513 1497 
Q 3513 744 3044 326 
Q 2575 -91 1722 -91 
Q 1428 -91 1123 -41 
Q 819 9 494 109 
L 494 744 
Q 775 591 1075 516 
Q 1375 441 1709 441 
Q 2250 441 2565 725 
Q 2881 1009 2881 1497 
Q 2881 1984 2565 2268 
Q 2250 2553 1709 2553 
Q 1456 2553 1204 2497 
Q 953 2441 691 2322 
L 691 4666 
z
" transform="scale(0.015625)"/>
       </defs>
       <use xlink:href="#DejaVuSans-35"/>
       <use xlink:href="#DejaVuSans-30" x="63.623047"/>
      </g>
     </g>
    </g>
    <g id="xtick_3">
     <g id="line2d_3">
      <g>
       <use xlink:href="#m04e4b8a39d" x="173.033546" y="115.287587" style="stroke: #000000; stroke-width: 0.8"/>
      </g>
     </g>
     <g id="text_3">
      <!-- 100 -->
      <g transform="translate(163.489796 129.886024) scale(0.1 -0.1)">
       <defs>
        <path id="DejaVuSans-31" d="M 794 531 
L 1825 531 
L 1825 4091 
L 703 3866 
L 703 4441 
L 1819 4666 
L 2450 4666 
L 2450 531 
L 3481 531 
L 3481 0 
L 794 0 
L 794 531 
z
" transform="scale(0.015625)"/>
       </defs>
       <use xlink:href="#DejaVuSans-31"/>
       <use xlink:href="#DejaVuSans-30" x="63.623047"/>
       <use xlink:href="#DejaVuSans-30" x="127.246094"/>
      </g>
     </g>
    </g>
   </g>
   <g id="matplotlib.axis_2">
    <g id="ytick_1">
     <g id="line2d_4">
      <defs>
       <path id="m5dc9e198ed" d="M 0 0 
L -3.5 0 
" style="stroke: #000000; stroke-width: 0.8"/>
      </defs>
      <g>
       <use xlink:href="#m5dc9e198ed" x="49.39" y="111.638758" style="stroke: #000000; stroke-width: 0.8"/>
      </g>
     </g>
     <g id="text_4">
      <!-- −1 -->
      <g transform="translate(27.647813 115.437977) scale(0.1 -0.1)">
       <defs>
        <path id="DejaVuSans-2212" d="M 678 2272 
L 4684 2272 
L 4684 1741 
L 678 1741 
L 678 2272 
z
" transform="scale(0.015625)"/>
       </defs>
       <use xlink:href="#DejaVuSans-2212"/>
       <use xlink:href="#DejaVuSans-31" x="83.789062"/>
      </g>
     </g>
    </g>
    <g id="ytick_2">
     <g id="line2d_5">
      <g>
       <use xlink:href="#m5dc9e198ed" x="49.39" y="75.146657" style="stroke: #000000; stroke-width: 0.8"/>
      </g>
     </g>
     <g id="text_5">
      <!-- 0 -->
      <g transform="translate(36.0275 78.945876) scale(0.1 -0.1)">
       <use xlink:href="#DejaVuSans-30"/>
      </g>
     </g>
    </g>
    <g id="ytick_3">
     <g id="line2d_6">
      <g>
       <use xlink:href="#m5dc9e198ed" x="49.39" y="38.654556" style="stroke: #000000; stroke-width: 0.8"/>
      </g>
     </g>
     <g id="text_6">
      <!-- 1 -->
      <g transform="translate(36.0275 42.453774) scale(0.1 -0.1)">
       <use xlink:href="#DejaVuSans-31"/>
      </g>
     </g>
    </g>
   </g>
   <g id="line2d_7">
    <path d="M 55.277788 71.503526 
L 56.102903 48.968826 
L 56.574398 41.134592 
L 56.928019 38.745969 
L 57.045892 38.670116 
L 57.163766 38.958724 
L 57.399513 40.614178 
L 57.753134 45.642924 
L 58.224629 56.334929 
L 60.22848 108.579477 
L 60.582101 111.40853 
L 60.699975 111.635958 
L 60.817849 111.498797 
L 61.053596 110.139819 
L 61.407217 105.517845 
L 61.878711 95.24233 
L 62.8217 67.296476 
L 63.528942 48.545045 
L 64.000437 40.917067 
L 64.236184 39.086322 
L 64.471931 38.693188 
L 64.589805 39.042895 
L 64.825552 40.817422 
L 65.179173 46.008184 
L 65.650668 56.863353 
L 67.536646 107.248604 
L 67.890267 110.943081 
L 68.126014 111.638401 
L 68.243887 111.439971 
L 68.479635 109.960824 
L 68.833256 105.173401 
L 69.30475 94.72733 
L 70.365613 63.196426 
L 71.072855 45.814874 
L 71.426475 40.709219 
L 71.662223 38.997313 
L 71.780096 38.679757 
L 71.89797 38.726567 
L 72.133717 39.907775 
L 72.487338 44.283578 
L 72.958833 54.302483 
L 73.783948 78.500531 
L 74.609064 101.1212 
L 75.080558 109.052345 
L 75.434179 111.525635 
L 75.552053 111.630527 
L 75.669926 111.370884 
L 75.905673 109.771986 
L 76.259294 104.820469 
L 76.730789 94.206795 
L 78.734641 41.831366 
L 79.088262 38.918525 
L 79.206135 38.662113 
L 79.324009 38.770243 
L 79.559756 40.072174 
L 79.913377 44.615334 
L 80.384871 54.809059 
L 81.327861 82.712799 
L 82.035102 101.548501 
L 82.506597 109.274432 
L 82.742344 111.161279 
L 82.978091 111.612338 
L 83.095965 111.291555 
L 83.331712 109.573359 
L 83.685333 104.459146 
L 84.156828 93.680871 
L 86.160679 41.585687 
L 86.5143 38.849979 
L 86.632174 38.654784 
L 86.750048 38.824203 
L 86.985795 40.24649 
L 87.339416 44.955723 
L 87.81091 55.321386 
L 88.753899 83.31197 
L 89.461141 101.968337 
L 89.932636 109.48687 
L 90.168383 111.25512 
L 90.286257 111.601602 
L 90.40413 111.583839 
L 90.639877 110.459922 
L 90.993498 106.163813 
L 91.464993 96.228693 
L 92.290108 72.082253 
L 93.115224 49.377049 
L 93.586718 41.349496 
L 93.940339 38.791695 
L 94.058213 38.657772 
L 94.176086 38.888433 
L 94.411834 40.430672 
L 94.765455 45.304648 
L 95.236949 55.839318 
L 96.297812 87.401612 
L 97.005054 104.669452 
L 97.358674 109.6896 
L 97.594422 111.338751 
L 97.712295 111.62413 
L 97.830169 111.545038 
L 98.065916 110.300236 
L 98.419537 105.836178 
L 98.891032 95.724889 
L 99.716147 71.471278 
L 100.541263 48.946255 
L 101.012757 41.122861 
L 101.366378 38.74369 
L 101.484252 38.671076 
L 101.602125 38.962914 
L 101.837872 40.62467 
L 102.191493 45.66201 
L 102.662988 56.362708 
L 104.66684 108.592454 
L 105.020461 111.41215 
L 105.138334 111.636345 
L 105.256208 111.495947 
L 105.491955 110.130611 
L 105.845576 105.499865 
L 106.31707 95.215268 
L 107.26006 67.264828 
L 107.967301 48.522869 
L 108.438796 40.905845 
L 108.674543 39.081365 
L 108.91029 38.694694 
L 109.028164 39.047625 
L 109.263911 40.828428 
L 109.617532 46.027707 
L 110.089027 56.89141 
L 111.975005 107.264004 
L 112.328626 110.949365 
L 112.564373 111.638243 
L 112.682247 111.436578 
L 112.917994 109.951095 
L 113.271615 105.154971 
L 113.743109 94.699973 
L 114.803972 63.165808 
L 115.511214 45.795604 
L 115.864835 40.69851 
L 116.100582 38.992895 
L 116.218456 38.678567 
L 116.336329 38.728617 
L 116.572076 39.91621 
L 116.925697 44.300884 
L 117.397192 54.329094 
L 118.222307 78.532803 
L 119.047423 101.143955 
L 119.518917 109.064316 
L 119.872538 111.528171 
L 119.990412 111.629824 
L 120.108285 111.366949 
L 120.344033 109.761739 
L 120.697654 104.801592 
L 121.169148 94.179149 
L 123.173 41.818153 
L 123.526621 38.914648 
L 123.644494 38.661468 
L 123.762368 38.772836 
L 123.998115 40.081134 
L 124.351736 44.633099 
L 124.823231 54.835978 
L 125.76622 82.744502 
L 126.473462 101.570865 
L 126.944956 109.285895 
L 127.180703 111.166491 
L 127.416451 111.61109 
L 127.534324 111.28708 
L 127.770071 109.562597 
L 128.123692 104.43983 
L 128.595187 93.652944 
L 130.599039 41.572973 
L 130.95266 38.846644 
L 131.070533 38.654684 
L 131.188407 38.827339 
L 131.424154 40.255972 
L 131.777775 44.973941 
L 132.249269 55.348604 
L 133.192259 83.343556 
L 133.8995 101.990303 
L 134.370995 109.497822 
L 134.606742 111.259793 
L 134.724616 111.60305 
L 134.842489 111.582047 
L 135.078237 110.451737 
L 135.431858 106.146726 
L 135.903352 96.20223 
L 136.728467 72.049957 
L 137.553583 49.354111 
L 138.025077 41.337286 
L 138.378698 38.788903 
L 138.496572 38.658217 
L 138.614446 38.892111 
L 138.850193 40.440674 
L 139.203814 45.323314 
L 139.675308 55.866828 
L 140.736171 87.432135 
L 141.443413 104.688491 
L 141.797034 109.700037 
L 142.032781 111.342884 
L 142.150655 111.625033 
L 142.268528 111.542702 
L 142.504275 110.291525 
L 142.857896 105.81863 
L 143.329391 95.698115 
L 144.154506 71.439034 
L 144.979622 48.923705 
L 145.451116 41.111157 
L 145.804737 38.741441 
L 145.922611 38.672066 
L 146.040484 38.967133 
L 146.276232 40.635189 
L 146.629853 45.681118 
L 147.101347 56.390503 
L 149.105199 108.605405 
L 149.45882 111.415742 
L 149.576693 111.636703 
L 149.694567 111.493068 
L 149.930314 110.121376 
L 150.283935 105.481861 
L 150.75543 95.188191 
L 151.698419 67.233185 
L 152.405661 48.500713 
L 152.877155 40.894651 
L 153.112902 39.076436 
L 153.34865 38.696228 
L 153.466523 39.052384 
L 153.70227 40.839461 
L 154.055891 46.047253 
L 154.527386 56.919481 
L 156.413364 107.279378 
L 156.766985 110.955621 
L 157.002732 111.638056 
L 157.120606 111.433157 
L 157.356353 109.941339 
L 157.709974 105.136517 
L 158.181468 94.672599 
L 159.242331 63.135198 
L 159.949573 45.776357 
L 160.303194 40.687829 
L 160.538941 38.988506 
L 160.656815 38.677406 
L 160.774688 38.730695 
L 161.010436 39.924673 
L 161.364057 44.318214 
L 161.835551 54.355722 
L 162.660666 78.565073 
L 163.485782 101.166689 
L 163.957276 109.07626 
L 164.310897 111.530678 
L 164.428771 111.629092 
L 164.546645 111.362987 
L 164.782392 109.751465 
L 165.136013 104.782693 
L 165.607507 94.151488 
L 167.611359 41.804966 
L 167.96498 38.910799 
L 168.082854 38.660851 
L 168.200727 38.775458 
L 168.436474 40.090121 
L 168.790095 44.650887 
L 169.26159 54.862913 
L 170.204579 82.776199 
L 170.911821 101.593207 
L 171.383315 109.297331 
L 171.619063 111.171674 
L 171.85481 111.609814 
L 171.972683 111.282577 
L 172.208431 109.551807 
L 172.562052 104.42049 
L 173.033546 93.625003 
L 173.033546 93.625003 
" clip-path="url(#p5847522d2c)" style="fill: none; stroke: #ff0000; stroke-width: 1.5; stroke-linecap: square"/>
   </g>
   <g id="patch_3">
    <path d="M 49.39 115.287587 
L 49.39 35.005498 
" style="fill: none; stroke: #000000; stroke-width: 0.8; stroke-linejoin: miter; stroke-linecap: square"/>
   </g>
   <g id="patch_4">
    <path d="M 178.921334 115.287587 
L 178.921334 35.005498 
" style="fill: none; stroke: #000000; stroke-width: 0.8; stroke-linejoin: miter; stroke-linecap: square"/>
   </g>
   <g id="patch_5">
    <path d="M 49.39 115.287587 
L 178.921334 115.287587 
" style="fill: none; stroke: #000000; stroke-width: 0.8; stroke-linejoin: miter; stroke-linecap: square"/>
   </g>
   <g id="patch_6">
    <path d="M 49.39 35.005498 
L 178.921334 35.005498 
" style="fill: none; stroke: #000000; stroke-width: 0.8; stroke-linejoin: miter; stroke-linecap: square"/>
   </g>
  </g>
  <g id="axes_2">
   <g id="patch_7">
    <path d="M 224.8225 115.287587 
L 354.353834 115.287587 
L 354.353834 35.005498 
L 224.8225 35.005498 
z
" style="fill: #ffffff"/>
   </g>
   <g id="matplotlib.axis_3">
    <g id="xtick_4">
     <g id="line2d_8">
      <g>
       <use xlink:href="#m04e4b8a39d" x="230.592414" y="115.287587" style="stroke: #000000; stroke-width: 0.8"/>
      </g>
     </g>
     <g id="text_7">
      <!-- 0 -->
      <g transform="translate(227.411164 129.886024) scale(0.1 -0.1)">
       <use xlink:href="#DejaVuSans-30"/>
      </g>
     </g>
    </g>
    <g id="xtick_5">
     <g id="line2d_9">
      <g>
       <use xlink:href="#m04e4b8a39d" x="289.52923" y="115.287587" style="stroke: #000000; stroke-width: 0.8"/>
      </g>
     </g>
     <g id="text_8">
      <!-- 50 -->
      <g transform="translate(283.16673 129.886024) scale(0.1 -0.1)">
       <use xlink:href="#DejaVuSans-35"/>
       <use xlink:href="#DejaVuSans-30" x="63.623047"/>
      </g>
     </g>
    </g>
    <g id="xtick_6">
     <g id="line2d_10">
      <g>
       <use xlink:href="#m04e4b8a39d" x="348.466046" y="115.287587" style="stroke: #000000; stroke-width: 0.8"/>
      </g>
     </g>
     <g id="text_9">
      <!-- 100 -->
      <g transform="translate(338.922296 129.886024) scale(0.1 -0.1)">
       <use xlink:href="#DejaVuSans-31"/>
       <use xlink:href="#DejaVuSans-30" x="63.623047"/>
       <use xlink:href="#DejaVuSans-30" x="127.246094"/>
      </g>
     </g>
    </g>
   </g>
   <g id="matplotlib.axis_4">
    <g id="ytick_4">
     <g id="line2d_11">
      <g>
       <use xlink:href="#m5dc9e198ed" x="224.8225" y="111.639099" style="stroke: #000000; stroke-width: 0.8"/>
      </g>
     </g>
     <g id="text_10">
      <!-- −1 -->
      <g transform="translate(203.080312 115.438318) scale(0.1 -0.1)">
       <use xlink:href="#DejaVuSans-2212"/>
       <use xlink:href="#DejaVuSans-31" x="83.789062"/>
      </g>
     </g>
    </g>
    <g id="ytick_5">
     <g id="line2d_12">
      <g>
       <use xlink:href="#m5dc9e198ed" x="224.8225" y="75.146884" style="stroke: #000000; stroke-width: 0.8"/>
      </g>
     </g>
     <g id="text_11">
      <!-- 0 -->
      <g transform="translate(211.46 78.946103) scale(0.1 -0.1)">
       <use xlink:href="#DejaVuSans-30"/>
      </g>
     </g>
    </g>
    <g id="ytick_6">
     <g id="line2d_13">
      <g>
       <use xlink:href="#m5dc9e198ed" x="224.8225" y="38.654669" style="stroke: #000000; stroke-width: 0.8"/>
      </g>
     </g>
     <g id="text_12">
      <!-- 1 -->
      <g transform="translate(211.46 42.453888) scale(0.1 -0.1)">
       <use xlink:href="#DejaVuSans-31"/>
      </g>
     </g>
    </g>
   </g>
   <g id="line2d_14">
    <path d="M 230.710288 38.836978 
L 230.946035 40.28454 
L 231.299656 45.028559 
L 231.771151 55.430056 
L 232.71414 83.437992 
L 233.421381 102.056014 
L 233.892876 109.530665 
L 234.128623 111.273903 
L 234.246497 111.607539 
L 234.36437 111.576872 
L 234.600118 110.427492 
L 234.953739 106.095933 
L 235.425233 96.123483 
L 236.250349 71.953853 
L 237.075464 49.285954 
L 237.546959 41.301142 
L 237.900579 38.780856 
L 238.018453 38.659828 
L 238.136327 38.903367 
L 238.372074 40.470792 
L 238.725695 45.379268 
L 239.197189 55.94915 
L 241.201041 108.396046 
L 241.554662 111.355384 
L 241.672536 111.627898 
L 241.790409 111.535905 
L 242.026157 110.26571 
L 242.379777 105.766463 
L 242.851272 95.618442 
L 243.794261 67.738787 
L 244.501503 48.856707 
L 244.972997 41.076525 
L 245.326618 38.735015 
L 245.444492 38.675302 
L 245.562366 38.980002 
L 245.798113 40.666849 
L 246.151734 45.738394 
L 246.623228 56.473672 
L 248.62708 108.644212 
L 248.980701 111.426628 
L 249.098574 111.637942 
L 249.216448 111.48465 
L 249.452195 110.094 
L 249.805816 105.428336 
L 250.277311 95.107614 
L 251.2203 67.139034 
L 251.927542 48.434893 
L 252.399036 40.86154 
L 252.634783 39.062019 
L 252.752657 38.699469 
L 252.870531 38.701088 
L 253.106278 39.793137 
L 253.459899 44.044849 
L 253.931393 53.933164 
L 254.756509 78.050335 
L 255.581624 100.801968 
L 256.053119 108.882907 
L 256.40674 111.487614 
L 256.524613 111.63767 
L 256.642487 111.423121 
L 256.878234 109.912409 
L 257.231855 105.081647 
L 257.70335 94.591141 
L 258.764212 63.044135 
L 259.471454 45.719216 
L 259.825075 40.656248 
L 260.060822 38.975698 
L 260.178696 38.674227 
L 260.296569 38.737179 
L 260.532317 39.9502 
L 260.885938 44.370187 
L 261.357432 54.435414 
L 262.182548 78.661556 
L 263.007663 101.234693 
L 263.479158 109.112064 
L 263.832778 111.538326 
L 263.950652 111.62708 
L 264.068526 111.351336 
L 264.304273 109.720989 
L 264.657894 104.726496 
L 265.129388 94.069172 
L 267.13324 41.765909 
L 267.486861 38.899603 
L 267.604735 38.659297 
L 267.722608 38.783563 
L 267.958356 40.117214 
L 268.311976 44.704226 
L 268.783471 54.943519 
L 269.72646 82.870969 
L 270.433702 101.660043 
L 270.905196 109.331619 
L 271.140944 111.187307 
L 271.376691 111.606177 
L 271.494565 111.269315 
L 271.730312 109.519794 
L 272.083933 104.362981 
L 272.555427 93.541852 
L 274.559279 41.52272 
L 274.9129 38.833757 
L 275.030773 38.654684 
L 275.148647 38.840228 
L 275.384394 40.294131 
L 275.738015 45.046872 
L 276.20951 55.457337 
L 277.152499 83.469552 
L 277.859741 102.077896 
L 278.331235 109.541508 
L 278.566982 111.278463 
L 278.684856 111.608872 
L 278.80273 111.574966 
L 279.038477 110.419196 
L 279.392098 106.078748 
L 279.863592 96.096954 
L 280.688708 71.921567 
L 281.513823 49.263097 
L 281.985318 41.289038 
L 282.338939 38.778177 
L 282.456812 38.660387 
L 282.574686 38.907158 
L 282.810433 40.480903 
L 283.164054 45.398028 
L 283.635549 55.976721 
L 285.6394 108.40939 
L 285.993021 111.359404 
L 286.110895 111.628686 
L 286.228768 111.533455 
L 286.464516 110.256889 
L 286.818137 105.748819 
L 287.289631 95.591604 
L 288.23262 67.707054 
L 288.939862 48.83424 
L 289.411357 41.064927 
L 289.764977 38.73288 
L 289.882851 38.676407 
L 290.000725 38.984334 
L 290.236472 40.677476 
L 290.590093 45.757595 
L 291.061587 56.501526 
L 293.065439 108.657057 
L 293.41906 111.430106 
L 293.536934 111.638186 
L 293.654807 111.481657 
L 293.890555 110.084655 
L 294.244175 105.410237 
L 294.71567 95.080473 
L 295.658659 67.107416 
L 296.365901 48.412822 
L 296.837395 40.850453 
L 297.073143 39.057204 
L 297.191016 38.697877 
L 297.30889 38.702737 
L 297.544637 39.801183 
L 297.898258 44.061815 
L 298.369753 53.959544 
L 299.194868 78.082642 
L 300.019983 100.825007 
L 300.491478 108.89525 
L 300.845099 111.49055 
L 300.962972 111.637368 
L 301.080846 111.419586 
L 301.316593 109.902544 
L 301.670214 105.063099 
L 302.141709 94.563707 
L 303.202571 63.013564 
L 303.909813 45.700061 
L 304.263434 40.645676 
L 304.499181 38.971423 
L 304.617055 38.67318 
L 304.734929 38.739371 
L 304.970676 39.958773 
L 305.324297 44.387614 
L 305.795791 54.462107 
L 306.620907 78.693815 
L 307.446022 101.257346 
L 307.917517 109.123902 
L 308.271138 111.540719 
L 308.389011 111.626234 
L 308.506885 111.34726 
L 308.742632 109.710606 
L 309.096253 104.707503 
L 309.567748 94.041451 
L 311.571599 41.752827 
L 311.92522 38.895869 
L 312.043094 38.658796 
L 312.160967 38.786299 
L 312.396715 40.126311 
L 312.750336 44.72211 
L 313.22183 54.970518 
L 314.164819 82.902643 
L 314.872061 101.682302 
L 315.343556 109.342947 
L 315.579303 111.192377 
L 315.81505 111.604786 
L 315.932924 111.264699 
L 316.168671 109.508896 
L 316.522292 104.343549 
L 316.993786 93.513853 
L 318.879764 43.090926 
L 319.233385 39.369262 
L 319.469133 38.654727 
L 319.587006 38.843507 
L 319.822754 40.303751 
L 320.176374 45.065208 
L 320.647869 55.484633 
L 321.590858 83.501105 
L 322.2981 102.099756 
L 322.769594 109.552325 
L 323.005342 111.282994 
L 323.123215 111.610177 
L 323.241089 111.57303 
L 323.476836 110.410872 
L 323.830457 106.061539 
L 324.301952 96.070408 
L 325.127067 71.889285 
L 325.952182 49.240261 
L 326.423677 41.27696 
L 326.777298 38.775527 
L 326.895171 38.660975 
L 327.013045 38.910979 
L 327.248792 40.491041 
L 327.602413 45.416811 
L 328.073908 56.004307 
L 330.07776 108.422707 
L 330.43138 111.363394 
L 330.549254 111.629446 
L 330.667128 111.530976 
L 330.902875 110.248039 
L 331.256496 105.73115 
L 331.72799 95.564749 
L 332.670979 67.675327 
L 333.378221 48.811793 
L 333.849716 41.053357 
L 334.203337 38.730773 
L 334.32121 38.677539 
L 334.439084 38.988695 
L 334.674831 40.68813 
L 335.028452 45.776819 
L 335.499947 56.529394 
L 337.503798 108.669876 
L 337.857419 111.433555 
L 337.975293 111.638401 
L 338.093166 111.478635 
L 338.328914 110.075282 
L 338.682535 105.392114 
L 339.154029 95.053317 
L 340.097018 67.075805 
L 340.80426 48.390771 
L 341.275755 40.839394 
L 341.511502 39.052418 
L 341.629375 38.696315 
L 341.747249 38.704414 
L 341.982996 39.809257 
L 342.336617 44.078804 
L 342.808112 53.985941 
L 343.633227 78.114947 
L 344.458343 100.848026 
L 344.929837 108.907567 
L 345.283458 111.493457 
L 345.401332 111.637038 
L 345.519205 111.416022 
L 345.754953 109.892651 
L 346.108573 105.044527 
L 346.580068 94.536257 
L 347.640931 62.983002 
L 348.348172 45.680929 
L 348.466046 43.678959 
L 348.466046 43.678959 
" clip-path="url(#p254e12d106)" style="fill: none; stroke: #008000; stroke-width: 1.5; stroke-linecap: square"/>
   </g>
   <g id="patch_8">
    <path d="M 224.8225 115.287587 
L 224.8225 35.005498 
" style="fill: none; stroke: #000000; stroke-width: 0.8; stroke-linejoin: miter; stroke-linecap: square"/>
   </g>
   <g id="patch_9">
    <path d="M 354.353834 115.287587 
L 354.353834 35.005498 
" style="fill: none; stroke: #000000; stroke-width: 0.8; stroke-linejoin: miter; stroke-linecap: square"/>
   </g>
   <g id="patch_10">
    <path d="M 224.8225 115.287587 
L 354.353834 115.287587 
" style="fill: none; stroke: #000000; stroke-width: 0.8; stroke-linejoin: miter; stroke-linecap: square"/>
   </g>
   <g id="patch_11">
    <path d="M 224.8225 35.005498 
L 354.353834 35.005498 
" style="fill: none; stroke: #000000; stroke-width: 0.8; stroke-linejoin: miter; stroke-linecap: square"/>
   </g>
  </g>
  <g id="axes_3">
   <g id="patch_12">
    <path d="M 400.255 223.703793 
L 705.218834 223.703793 
L 705.218834 35.005498 
L 400.255 35.005498 
z
" style="fill: #ffffff"/>
   </g>
   <g id="matplotlib.axis_5">
    <g id="xtick_7">
     <g id="line2d_15">
      <g>
       <use xlink:href="#m04e4b8a39d" x="413.839475" y="223.703793" style="stroke: #000000; stroke-width: 0.8"/>
      </g>
     </g>
     <g id="text_13">
      <!-- 0 -->
      <g transform="translate(410.658225 238.302231) scale(0.1 -0.1)">
       <use xlink:href="#DejaVuSans-30"/>
      </g>
     </g>
    </g>
    <g id="xtick_8">
     <g id="line2d_16">
      <g>
       <use xlink:href="#m04e4b8a39d" x="469.342948" y="223.703793" style="stroke: #000000; stroke-width: 0.8"/>
      </g>
     </g>
     <g id="text_14">
      <!-- 20 -->
      <g transform="translate(462.980448 238.302231) scale(0.1 -0.1)">
       <defs>
        <path id="DejaVuSans-32" d="M 1228 531 
L 3431 531 
L 3431 0 
L 469 0 
L 469 531 
Q 828 903 1448 1529 
Q 2069 2156 2228 2338 
Q 2531 2678 2651 2914 
Q 2772 3150 2772 3378 
Q 2772 3750 2511 3984 
Q 2250 4219 1831 4219 
Q 1534 4219 1204 4116 
Q 875 4013 500 3803 
L 500 4441 
Q 881 4594 1212 4672 
Q 1544 4750 1819 4750 
Q 2544 4750 2975 4387 
Q 3406 4025 3406 3419 
Q 3406 3131 3298 2873 
Q 3191 2616 2906 2266 
Q 2828 2175 2409 1742 
Q 1991 1309 1228 531 
z
" transform="scale(0.015625)"/>
       </defs>
       <use xlink:href="#DejaVuSans-32"/>
       <use xlink:href="#DejaVuSans-30" x="63.623047"/>
      </g>
     </g>
    </g>
    <g id="xtick_9">
     <g id="line2d_17">
      <g>
       <use xlink:href="#m04e4b8a39d" x="524.846422" y="223.703793" style="stroke: #000000; stroke-width: 0.8"/>
      </g>
     </g>
     <g id="text_15">
      <!-- 40 -->
      <g transform="translate(518.483922 238.302231) scale(0.1 -0.1)">
       <defs>
        <path id="DejaVuSans-34" d="M 2419 4116 
L 825 1625 
L 2419 1625 
L 2419 4116 
z
M 2253 4666 
L 3047 4666 
L 3047 1625 
L 3713 1625 
L 3713 1100 
L 3047 1100 
L 3047 0 
L 2419 0 
L 2419 1100 
L 313 1100 
L 313 1709 
L 2253 4666 
z
" transform="scale(0.015625)"/>
       </defs>
       <use xlink:href="#DejaVuSans-34"/>
       <use xlink:href="#DejaVuSans-30" x="63.623047"/>
      </g>
     </g>
    </g>
    <g id="xtick_10">
     <g id="line2d_18">
      <g>
       <use xlink:href="#m04e4b8a39d" x="580.349895" y="223.703793" style="stroke: #000000; stroke-width: 0.8"/>
      </g>
     </g>
     <g id="text_16">
      <!-- 60 -->
      <g transform="translate(573.987395 238.302231) scale(0.1 -0.1)">
       <defs>
        <path id="DejaVuSans-36" d="M 2113 2584 
Q 1688 2584 1439 2293 
Q 1191 2003 1191 1497 
Q 1191 994 1439 701 
Q 1688 409 2113 409 
Q 2538 409 2786 701 
Q 3034 994 3034 1497 
Q 3034 2003 2786 2293 
Q 2538 2584 2113 2584 
z
M 3366 4563 
L 3366 3988 
Q 3128 4100 2886 4159 
Q 2644 4219 2406 4219 
Q 1781 4219 1451 3797 
Q 1122 3375 1075 2522 
Q 1259 2794 1537 2939 
Q 1816 3084 2150 3084 
Q 2853 3084 3261 2657 
Q 3669 2231 3669 1497 
Q 3669 778 3244 343 
Q 2819 -91 2113 -91 
Q 1303 -91 875 529 
Q 447 1150 447 2328 
Q 447 3434 972 4092 
Q 1497 4750 2381 4750 
Q 2619 4750 2861 4703 
Q 3103 4656 3366 4563 
z
" transform="scale(0.015625)"/>
       </defs>
       <use xlink:href="#DejaVuSans-36"/>
       <use xlink:href="#DejaVuSans-30" x="63.623047"/>
      </g>
     </g>
    </g>
    <g id="xtick_11">
     <g id="line2d_19">
      <g>
       <use xlink:href="#m04e4b8a39d" x="635.853368" y="223.703793" style="stroke: #000000; stroke-width: 0.8"/>
      </g>
     </g>
     <g id="text_17">
      <!-- 80 -->
      <g transform="translate(629.490868 238.302231) scale(0.1 -0.1)">
       <defs>
        <path id="DejaVuSans-38" d="M 2034 2216 
Q 1584 2216 1326 1975 
Q 1069 1734 1069 1313 
Q 1069 891 1326 650 
Q 1584 409 2034 409 
Q 2484 409 2743 651 
Q 3003 894 3003 1313 
Q 3003 1734 2745 1975 
Q 2488 2216 2034 2216 
z
M 1403 2484 
Q 997 2584 770 2862 
Q 544 3141 544 3541 
Q 544 4100 942 4425 
Q 1341 4750 2034 4750 
Q 2731 4750 3128 4425 
Q 3525 4100 3525 3541 
Q 3525 3141 3298 2862 
Q 3072 2584 2669 2484 
Q 3125 2378 3379 2068 
Q 3634 1759 3634 1313 
Q 3634 634 3220 271 
Q 2806 -91 2034 -91 
Q 1263 -91 848 271 
Q 434 634 434 1313 
Q 434 1759 690 2068 
Q 947 2378 1403 2484 
z
M 1172 3481 
Q 1172 3119 1398 2916 
Q 1625 2713 2034 2713 
Q 2441 2713 2670 2916 
Q 2900 3119 2900 3481 
Q 2900 3844 2670 4047 
Q 2441 4250 2034 4250 
Q 1625 4250 1398 4047 
Q 1172 3844 1172 3481 
z
" transform="scale(0.015625)"/>
       </defs>
       <use xlink:href="#DejaVuSans-38"/>
       <use xlink:href="#DejaVuSans-30" x="63.623047"/>
      </g>
     </g>
    </g>
    <g id="xtick_12">
     <g id="line2d_20">
      <g>
       <use xlink:href="#m04e4b8a39d" x="691.356842" y="223.703793" style="stroke: #000000; stroke-width: 0.8"/>
      </g>
     </g>
     <g id="text_18">
      <!-- 100 -->
      <g transform="translate(681.813092 238.302231) scale(0.1 -0.1)">
       <use xlink:href="#DejaVuSans-31"/>
       <use xlink:href="#DejaVuSans-30" x="63.623047"/>
       <use xlink:href="#DejaVuSans-30" x="127.246094"/>
      </g>
     </g>
    </g>
   </g>
   <g id="matplotlib.axis_6">
    <g id="ytick_7">
     <g id="line2d_21">
      <g>
       <use xlink:href="#m5dc9e198ed" x="400.255" y="197.97296" style="stroke: #000000; stroke-width: 0.8"/>
      </g>
     </g>
     <g id="text_19">
      <!-- −0.4 -->
      <g transform="translate(368.972187 201.772179) scale(0.1 -0.1)">
       <defs>
        <path id="DejaVuSans-2e" d="M 684 794 
L 1344 794 
L 1344 0 
L 684 0 
L 684 794 
z
" transform="scale(0.015625)"/>
       </defs>
       <use xlink:href="#DejaVuSans-2212"/>
       <use xlink:href="#DejaVuSans-30" x="83.789062"/>
       <use xlink:href="#DejaVuSans-2e" x="147.412109"/>
       <use xlink:href="#DejaVuSans-34" x="179.199219"/>
      </g>
     </g>
    </g>
    <g id="ytick_8">
     <g id="line2d_22">
      <g>
       <use xlink:href="#m5dc9e198ed" x="400.255" y="163.664005" style="stroke: #000000; stroke-width: 0.8"/>
      </g>
     </g>
     <g id="text_20">
      <!-- −0.2 -->
      <g transform="translate(368.972187 167.463224) scale(0.1 -0.1)">
       <use xlink:href="#DejaVuSans-2212"/>
       <use xlink:href="#DejaVuSans-30" x="83.789062"/>
       <use xlink:href="#DejaVuSans-2e" x="147.412109"/>
       <use xlink:href="#DejaVuSans-32" x="179.199219"/>
      </g>
     </g>
    </g>
    <g id="ytick_9">
     <g id="line2d_23">
      <g>
       <use xlink:href="#m5dc9e198ed" x="400.255" y="129.355049" style="stroke: #000000; stroke-width: 0.8"/>
      </g>
     </g>
     <g id="text_21">
      <!-- 0.0 -->
      <g transform="translate(377.351875 133.154268) scale(0.1 -0.1)">
       <use xlink:href="#DejaVuSans-30"/>
       <use xlink:href="#DejaVuSans-2e" x="63.623047"/>
       <use xlink:href="#DejaVuSans-30" x="95.410156"/>
      </g>
     </g>
    </g>
    <g id="ytick_10">
     <g id="line2d_24">
      <g>
       <use xlink:href="#m5dc9e198ed" x="400.255" y="95.046094" style="stroke: #000000; stroke-width: 0.8"/>
      </g>
     </g>
     <g id="text_22">
      <!-- 0.2 -->
      <g transform="translate(377.351875 98.845312) scale(0.1 -0.1)">
       <use xlink:href="#DejaVuSans-30"/>
       <use xlink:href="#DejaVuSans-2e" x="63.623047"/>
       <use xlink:href="#DejaVuSans-32" x="95.410156"/>
      </g>
     </g>
    </g>
    <g id="ytick_11">
     <g id="line2d_25">
      <g>
       <use xlink:href="#m5dc9e198ed" x="400.255" y="60.737138" style="stroke: #000000; stroke-width: 0.8"/>
      </g>
     </g>
     <g id="text_23">
      <!-- 0.4 -->
      <g transform="translate(377.351875 64.536357) scale(0.1 -0.1)">
       <use xlink:href="#DejaVuSans-30"/>
       <use xlink:href="#DejaVuSans-2e" x="63.623047"/>
       <use xlink:href="#DejaVuSans-34" x="95.410156"/>
      </g>
     </g>
    </g>
   </g>
   <g id="line2d_26">
    <path d="M 414.116992 112.314706 
L 414.949545 67.825704 
L 415.504579 49.41183 
L 415.782097 44.830672 
L 416.059614 43.619233 
L 416.337131 45.825811 
L 416.614649 51.362437 
L 417.169683 71.418959 
L 418.002236 117.250849 
L 419.112305 181.835562 
L 419.66734 204.112185 
L 419.944857 210.976232 
L 420.222375 214.5863 
L 420.499892 214.798467 
L 420.777409 211.604275 
L 421.054927 205.131066 
L 421.609961 183.500297 
L 422.442513 136.481826 
L 423.552583 73.003739 
L 424.107618 52.270709 
L 424.385135 46.334267 
L 424.662652 43.707601 
L 424.94017 44.495429 
L 425.217687 48.666342 
L 425.772722 66.364056 
L 426.327757 94.006662 
L 427.992861 189.384973 
L 428.547896 208.503702 
L 428.825413 213.492293 
L 429.10293 215.126598 
L 429.380448 213.341462 
L 429.657965 208.208053 
L 430.213 188.840352 
L 431.045552 143.559315 
L 432.155621 78.571489 
L 432.710656 55.662688 
L 432.988173 48.412017 
L 433.265691 44.38829 
L 433.543208 43.751919 
L 433.820725 46.528275 
L 434.098243 52.606673 
L 434.653278 73.578308 
L 435.48583 120.112761 
L 436.595899 184.086984 
L 437.150934 205.483794 
L 437.428451 211.816409 
L 437.705969 214.861549 
L 437.983486 214.497816 
L 438.261003 210.739708 
L 438.538521 203.737052 
L 439.093555 181.233005 
L 439.926108 133.603839 
L 441.036177 70.8614 
L 441.591212 51.049554 
L 441.868729 45.656592 
L 442.146246 43.600424 
L 442.423764 44.963022 
L 442.701281 49.690063 
L 443.256316 68.357052 
L 444.088868 113.059438 
L 445.198937 178.410479 
L 445.753972 201.937395 
L 446.03149 209.570238 
L 446.309007 214.005154 
L 446.586524 215.065338 
L 446.864042 212.708523 
L 447.141559 207.028669 
L 447.696594 186.729042 
L 448.529146 140.707175 
L 449.639215 76.276091 
L 450.19425 54.228637 
L 450.471767 47.503737 
L 450.749285 44.041991 
L 451.026802 43.981407 
L 451.30432 47.324401 
L 451.581837 53.937698 
L 452.136872 75.800731 
L 452.969424 122.985125 
L 454.079493 186.276513 
L 454.634528 206.769314 
L 454.912045 212.563335 
L 455.189563 215.040105 
L 455.46708 214.100882 
L 455.744597 209.78311 
L 456.299632 191.828292 
L 456.854667 164.010323 
L 458.519771 68.785208 
L 459.074806 49.916949 
L 459.352323 45.073566 
L 459.629841 43.59022 
L 459.907358 45.526047 
L 460.184875 50.803872 
L 460.73991 70.419027 
L 461.572462 115.900055 
L 462.682532 180.748445 
L 463.237566 203.433008 
L 463.515084 210.546064 
L 463.792601 214.422291 
L 464.070118 214.907155 
L 464.347636 211.981326 
L 464.625153 205.761449 
L 465.180188 184.552852 
L 466.01274 137.842198 
L 467.122809 74.040716 
L 467.677844 52.87954 
L 467.955362 46.688016 
L 468.232879 43.792166 
L 468.510396 44.307438 
L 468.787914 48.21329 
L 469.065431 55.354008 
L 469.620466 78.083715 
L 470.453018 125.864691 
L 471.563087 188.401673 
L 472.118122 207.967292 
L 472.395639 213.216168 
L 472.673157 215.121766 
L 472.950674 213.608115 
L 473.228192 208.735561 
L 473.783226 189.816919 
L 474.615778 144.904651 
L 475.725848 79.678767 
L 476.280883 56.371021 
L 476.5584 48.874176 
L 476.835917 44.585849 
L 477.113435 43.677002 
L 477.390952 46.183869 
L 477.668469 52.006508 
L 478.223504 72.547648 
L 479.056056 118.755887 
L 480.166126 183.028294 
L 480.72116 204.844852 
L 480.998678 211.430078 
L 481.276195 214.743231 
L 481.553713 214.652226 
L 481.83123 211.160693 
L 482.108747 204.407826 
L 482.663782 182.314243 
L 483.496334 134.967623 
L 484.606404 71.867892 
L 485.161438 51.616925 
L 485.438956 45.965778 
L 485.716473 43.639099 
L 485.99399 44.729644 
L 486.271508 49.193936 
L 486.826542 67.404451 
L 487.381577 95.395603 
L 489.046681 190.460062 
L 489.601716 209.076373 
L 489.879233 213.774168 
L 490.156751 215.106439 
L 490.434268 213.020073 
L 490.711786 207.598246 
L 491.26682 187.737173 
L 492.099372 142.059718 
L 493.209442 77.355844 
L 493.764477 54.897296 
L 494.041994 47.922412 
L 494.319511 44.19399 
L 494.597029 43.860671 
L 494.874546 46.935743 
L 495.152063 53.296613 
L 495.707098 74.740509 
L 496.53965 121.623705 
L 497.64972 185.247448 
L 498.204754 206.17133 
L 498.482272 212.221278 
L 498.759789 214.967611 
L 499.037307 214.300841 
L 499.314824 210.247551 
L 499.592341 202.969332 
L 500.147376 180.015745 
L 500.979928 132.086701 
L 502.089998 69.760076 
L 502.645032 50.442218 
L 502.92255 45.337839 
L 503.200067 43.582961 
L 503.477584 45.247546 
L 503.755102 50.265231 
L 504.310137 69.434045 
L 505.142689 114.552674 
L 506.252758 179.648292 
L 506.807793 202.735042 
L 507.08531 210.095302 
L 507.362828 214.236704 
L 507.640345 214.994142 
L 507.917862 212.337419 
L 508.19538 206.372451 
L 508.750414 185.591407 
L 509.582967 139.200417 
L 510.693036 75.091723 
L 511.248071 53.50777 
L 511.525588 47.062735 
L 511.803105 43.898435 
L 512.080623 44.14102 
L 512.35814 47.78082 
L 512.635658 54.672726 
L 513.190692 76.99513 
L 514.023244 124.500266 
L 515.133314 187.403397 
L 515.688349 207.410942 
L 515.965866 212.918771 
L 516.243383 215.095179 
L 516.520901 213.853397 
L 516.798418 209.242934 
L 517.353453 190.778148 
L 518.186005 146.246044 
L 519.573592 67.719651 
L 520.128626 49.356748 
L 520.406144 44.804909 
L 520.683661 43.623817 
L 520.961179 45.860559 
L 521.238696 51.425963 
L 521.793731 71.531398 
L 522.626283 117.401702 
L 523.736352 181.95599 
L 524.291387 204.186763 
L 524.568904 211.022928 
L 524.846422 214.603253 
L 525.123939 214.785001 
L 525.401456 211.560927 
L 525.678974 205.059563 
L 526.234009 183.382047 
L 527.066561 136.329983 
L 528.17663 72.888965 
L 528.731665 52.204014 
L 529.009182 46.296116 
L 529.2867 43.699516 
L 529.564217 44.517731 
L 529.841734 48.718142 
L 530.396769 66.467564 
L 530.951804 94.145536 
L 532.616908 189.493703 
L 533.171943 208.562286 
L 533.44946 213.521768 
L 533.726977 215.125788 
L 534.004495 213.3104 
L 534.282012 208.147977 
L 534.837047 188.730495 
L 535.669599 143.409038 
L 536.779668 78.448786 
L 537.334703 55.584842 
L 537.612221 48.361742 
L 537.889738 44.367591 
L 538.167255 43.761621 
L 538.444773 46.567991 
L 538.72229 52.67482 
L 539.277325 73.694141 
L 540.109877 120.264247 
L 541.219946 184.204206 
L 541.774981 205.553862 
L 542.052498 211.858202 
L 542.330016 214.873402 
L 542.607533 214.479255 
L 542.88505 210.691474 
L 543.162568 203.661067 
L 543.717603 181.111592 
L 544.550155 133.451661 
L 545.660224 70.75006 
L 546.215259 50.987503 
L 546.492776 45.623423 
L 546.770294 43.597458 
L 547.047811 44.990379 
L 547.325328 49.746652 
L 547.880363 68.464261 
L 548.712915 113.209047 
L 549.822985 178.535382 
L 550.378019 202.018462 
L 550.655537 209.62406 
L 550.933054 214.029587 
L 551.210571 215.059406 
L 551.488089 212.672464 
L 551.765606 206.963919 
L 552.320641 186.615697 
L 553.153193 140.556139 
L 554.263263 76.156494 
L 554.818297 54.155238 
L 555.095815 47.458326 
L 555.373332 44.026379 
L 555.650849 43.996216 
L 555.928367 47.36904 
L 556.205884 54.010388 
L 556.760919 75.919826 
L 557.593471 123.137072 
L 558.70354 186.390396 
L 559.258575 206.834794 
L 559.536092 212.600179 
L 559.81361 215.046844 
L 560.091127 214.077247 
L 560.368645 209.730043 
L 560.923679 191.723799 
L 561.478714 163.8709 
L 563.143818 68.677427 
L 563.698853 49.859612 
L 563.97637 45.045416 
L 564.253888 43.592378 
L 564.531405 45.558428 
L 564.808922 50.865185 
L 565.363957 70.529815 
L 566.196509 116.050549 
L 567.306579 180.870344 
L 567.861613 203.509692 
L 568.139131 210.595064 
L 568.416648 214.441653 
L 568.694166 214.896107 
L 568.971683 211.94031 
L 569.2492 205.692098 
L 569.804235 184.436148 
L 570.636787 137.690573 
L 571.746857 73.92436 
L 572.301891 52.810672 
L 572.579409 46.647522 
L 572.856926 43.781659 
L 573.134443 44.327337 
L 573.411961 48.262802 
L 573.689478 55.431159 
L 574.244513 78.205937 
L 575.077065 126.016929 
L 576.187134 188.512089 
L 576.742169 208.028109 
L 577.019687 213.24802 
L 577.297204 215.123383 
L 577.574721 213.579433 
L 577.852239 208.677722 
L 578.407273 189.708756 
L 579.239825 144.754793 
L 580.349895 79.554641 
L 580.90493 56.291099 
L 581.182447 48.821617 
L 581.459964 44.562748 
L 581.737482 43.684281 
L 582.014999 46.221237 
L 582.292517 52.072476 
L 582.847551 72.66189 
L 583.680103 118.907095 
L 584.790173 183.147051 
L 585.345208 204.917066 
L 585.622725 211.474199 
L 585.900242 214.757501 
L 586.17776 214.636076 
L 586.455277 211.114766 
L 586.732794 204.333954 
L 587.287829 182.194311 
L 588.120381 134.815582 
L 589.230451 71.754909 
L 589.785485 51.552665 
L 590.063003 45.930245 
L 590.34052 43.633708 
L 590.618038 44.75461 
L 590.895555 49.248265 
L 591.45059 67.509922 
L 592.005624 95.535565 
L 593.670729 190.566886 
L 594.225763 209.132458 
L 594.503281 213.800992 
L 594.780798 215.102932 
L 595.058315 212.986375 
L 595.335833 207.535701 
L 595.890867 187.625463 
L 596.72342 141.90902 
L 597.833489 77.234759 
L 598.388524 54.82178 
L 598.666041 47.874691 
L 598.943559 44.175967 
L 599.221076 43.873063 
L 599.498593 46.978057 
L 599.776111 53.367161 
L 600.331145 74.858076 
L 601.163697 121.775456 
L 602.273767 185.362928 
L 602.828802 206.238993 
L 603.106319 212.260472 
L 603.383836 214.976773 
L 603.661354 214.279606 
L 603.938871 210.196766 
L 604.216388 202.891021 
L 604.771423 179.892722 
L 605.603975 131.934416 
L 606.714045 69.650593 
L 607.26908 50.38264 
L 607.546597 45.307307 
L 607.824114 43.582693 
L 608.101632 45.277552 
L 608.379149 50.324315 
L 608.934184 69.543153 
L 609.766736 114.70277 
L 610.876805 179.771631 
L 611.43184 202.813812 
L 611.709357 210.146593 
L 611.986875 214.25847 
L 612.264392 214.985516 
L 612.541909 212.298745 
L 612.819427 206.30527 
L 613.374462 185.476277 
L 614.207014 139.04905 
L 615.317083 74.973815 
L 615.872118 53.436746 
L 616.149635 47.019906 
L 616.427153 43.885508 
L 616.70467 44.158511 
L 616.982187 47.828031 
L 617.259705 54.747776 
L 617.814739 77.115888 
L 618.647292 124.652388 
L 619.757361 187.51547 
L 620.312396 207.473976 
L 620.589913 212.952992 
L 620.86743 215.099222 
L 621.144948 213.827101 
L 621.422465 209.187347 
L 621.9775 190.671708 
L 622.810052 146.096642 
L 624.197639 67.613794 
L 624.752674 49.301918 
L 625.030191 44.779413 
L 625.307708 43.628672 
L 625.585226 45.895571 
L 625.862743 51.489736 
L 626.417778 71.64402 
L 627.25033 117.552593 
L 628.360399 182.076252 
L 628.915434 204.261104 
L 629.192951 211.069367 
L 629.470469 214.619937 
L 629.747986 214.771266 
L 630.025504 211.517319 
L 630.303021 204.987822 
L 630.858056 183.263627 
L 631.690608 136.178118 
L 632.800677 72.774368 
L 633.355712 52.137563 
L 633.633229 46.258227 
L 633.910747 43.6917 
L 634.188264 44.540301 
L 634.465781 48.770197 
L 635.020816 66.571271 
L 635.575851 94.284522 
L 637.240955 189.602243 
L 637.79599 208.620621 
L 638.073507 213.550978 
L 638.351025 215.124708 
L 638.628542 213.279073 
L 638.906059 208.087652 
L 639.461094 188.620449 
L 640.293646 143.258716 
L 641.403716 78.326244 
L 641.95875 55.507228 
L 642.236268 48.311723 
L 642.513785 44.34716 
L 642.791302 43.771593 
L 643.06882 46.607968 
L 643.346337 52.743209 
L 643.901372 73.810149 
L 644.733924 120.415762 
L 645.843993 184.321254 
L 646.399028 205.62369 
L 646.676546 211.899735 
L 646.954063 214.884984 
L 647.23158 214.460425 
L 647.509098 210.642982 
L 647.786615 203.584847 
L 648.34165 180.990016 
L 649.174202 133.29947 
L 650.284271 70.638904 
L 650.839306 50.925699 
L 651.116823 45.590517 
L 651.394341 43.594764 
L 651.671858 45.018002 
L 651.949376 49.803492 
L 652.50441 68.571662 
L 653.336962 113.358708 
L 654.447032 178.66013 
L 655.002067 202.0993 
L 655.279584 209.67763 
L 655.557101 214.053752 
L 655.834619 215.053204 
L 656.112136 212.636141 
L 656.389653 206.898924 
L 656.944688 186.502171 
L 657.77724 140.405067 
L 658.88731 76.037065 
L 659.442344 54.082077 
L 659.719862 47.413174 
L 659.997379 44.011036 
L 660.274896 44.011294 
L 660.552414 47.413938 
L 660.829931 54.083316 
L 661.384966 76.03909 
L 662.217518 123.28904 
L 663.327588 186.504099 
L 663.882622 206.900029 
L 664.16014 212.63676 
L 664.437657 215.053312 
L 664.715174 214.053344 
L 664.992692 209.676723 
L 665.547726 191.619108 
L 666.102761 163.731367 
L 667.767865 68.569838 
L 668.3229 49.802525 
L 668.600417 45.017531 
L 668.877935 43.594807 
L 669.155452 45.591074 
L 669.43297 50.926746 
L 669.988004 70.640789 
L 670.820556 116.201084 
L 671.930626 180.99208 
L 672.485661 203.586142 
L 672.763178 210.643808 
L 673.040695 214.460747 
L 673.318213 214.88479 
L 673.59573 211.899033 
L 673.873247 205.622507 
L 674.428282 184.319269 
L 675.260834 137.538923 
L 676.370904 73.808179 
L 676.925938 52.742046 
L 677.203456 46.607288 
L 677.480973 43.771421 
L 677.758491 44.347504 
L 678.036008 48.31257 
L 678.313525 55.508543 
L 678.86856 78.328322 
L 679.701112 126.169178 
L 680.811182 188.622318 
L 681.366216 208.088678 
L 681.643734 213.279607 
L 681.921251 215.124729 
L 682.198768 213.550484 
L 682.476286 208.619633 
L 683.031321 189.600403 
L 683.863873 144.604886 
L 684.973942 79.430672 
L 685.528977 56.211407 
L 685.806494 48.769312 
L 686.084012 44.539915 
L 686.361529 43.691831 
L 686.639046 46.258868 
L 686.916564 52.138688 
L 687.471598 72.776311 
L 688.304151 119.058335 
L 689.41422 183.265638 
L 689.969255 204.989042 
L 690.246772 211.518062 
L 690.524289 214.771501 
L 690.801807 214.619656 
L 691.079324 211.068581 
L 691.356842 204.259845 
L 691.356842 204.259845 
" clip-path="url(#p5641325b50)" style="fill: none; stroke: #0000ff; stroke-width: 1.5; stroke-linecap: square"/>
   </g>
   <g id="patch_13">
    <path d="M 400.255 223.703793 
L 400.255 35.005498 
" style="fill: none; stroke: #000000; stroke-width: 0.8; stroke-linejoin: miter; stroke-linecap: square"/>
   </g>
   <g id="patch_14">
    <path d="M 705.218834 223.703793 
L 705.218834 35.005498 
" style="fill: none; stroke: #000000; stroke-width: 0.8; stroke-linejoin: miter; stroke-linecap: square"/>
   </g>
   <g id="patch_15">
    <path d="M 400.255 223.703793 
L 705.218834 223.703793 
" style="fill: none; stroke: #000000; stroke-width: 0.8; stroke-linejoin: miter; stroke-linecap: square"/>
   </g>
   <g id="patch_16">
    <path d="M 400.255 35.005498 
L 705.218834 35.005498 
" style="fill: none; stroke: #000000; stroke-width: 0.8; stroke-linejoin: miter; stroke-linecap: square"/>
   </g>
  </g>
  <g id="axes_4">
   <g id="patch_17">
    <path d="M 49.39 332.12 
L 354.353834 332.12 
L 354.353834 143.421704 
L 49.39 143.421704 
z
" style="fill: #ffffff"/>
   </g>
   <g id="matplotlib.axis_7">
    <g id="xtick_13">
     <g id="line2d_27">
      <g>
       <use xlink:href="#m04e4b8a39d" x="62.974475" y="332.12" style="stroke: #000000; stroke-width: 0.8"/>
      </g>
     </g>
     <g id="text_24">
      <!-- 0 -->
      <g transform="translate(59.793225 346.718437) scale(0.1 -0.1)">
       <use xlink:href="#DejaVuSans-30"/>
      </g>
     </g>
    </g>
    <g id="xtick_14">
     <g id="line2d_28">
      <g>
       <use xlink:href="#m04e4b8a39d" x="118.477948" y="332.12" style="stroke: #000000; stroke-width: 0.8"/>
      </g>
     </g>
     <g id="text_25">
      <!-- 20 -->
      <g transform="translate(112.115448 346.718437) scale(0.1 -0.1)">
       <use xlink:href="#DejaVuSans-32"/>
       <use xlink:href="#DejaVuSans-30" x="63.623047"/>
      </g>
     </g>
    </g>
    <g id="xtick_15">
     <g id="line2d_29">
      <g>
       <use xlink:href="#m04e4b8a39d" x="173.981422" y="332.12" style="stroke: #000000; stroke-width: 0.8"/>
      </g>
     </g>
     <g id="text_26">
      <!-- 40 -->
      <g transform="translate(167.618922 346.718437) scale(0.1 -0.1)">
       <use xlink:href="#DejaVuSans-34"/>
       <use xlink:href="#DejaVuSans-30" x="63.623047"/>
      </g>
     </g>
    </g>
    <g id="xtick_16">
     <g id="line2d_30">
      <g>
       <use xlink:href="#m04e4b8a39d" x="229.484895" y="332.12" style="stroke: #000000; stroke-width: 0.8"/>
      </g>
     </g>
     <g id="text_27">
      <!-- 60 -->
      <g transform="translate(223.122395 346.718437) scale(0.1 -0.1)">
       <use xlink:href="#DejaVuSans-36"/>
       <use xlink:href="#DejaVuSans-30" x="63.623047"/>
      </g>
     </g>
    </g>
    <g id="xtick_17">
     <g id="line2d_31">
      <g>
       <use xlink:href="#m04e4b8a39d" x="284.988368" y="332.12" style="stroke: #000000; stroke-width: 0.8"/>
      </g>
     </g>
     <g id="text_28">
      <!-- 80 -->
      <g transform="translate(278.625868 346.718437) scale(0.1 -0.1)">
       <use xlink:href="#DejaVuSans-38"/>
       <use xlink:href="#DejaVuSans-30" x="63.623047"/>
      </g>
     </g>
    </g>
    <g id="xtick_18">
     <g id="line2d_32">
      <g>
       <use xlink:href="#m04e4b8a39d" x="340.491842" y="332.12" style="stroke: #000000; stroke-width: 0.8"/>
      </g>
     </g>
     <g id="text_29">
      <!-- 100 -->
      <g transform="translate(330.948092 346.718437) scale(0.1 -0.1)">
       <use xlink:href="#DejaVuSans-31"/>
       <use xlink:href="#DejaVuSans-30" x="63.623047"/>
       <use xlink:href="#DejaVuSans-30" x="127.246094"/>
      </g>
     </g>
    </g>
   </g>
   <g id="matplotlib.axis_8">
    <g id="ytick_12">
     <g id="line2d_33">
      <g>
       <use xlink:href="#m5dc9e198ed" x="49.39" y="323.542976" style="stroke: #000000; stroke-width: 0.8"/>
      </g>
     </g>
     <g id="text_30">
      <!-- 0 -->
      <g transform="translate(36.0275 327.342195) scale(0.1 -0.1)">
       <use xlink:href="#DejaVuSans-30"/>
      </g>
     </g>
    </g>
    <g id="ytick_13">
     <g id="line2d_34">
      <g>
       <use xlink:href="#m5dc9e198ed" x="49.39" y="289.234161" style="stroke: #000000; stroke-width: 0.8"/>
      </g>
     </g>
     <g id="text_31">
      <!-- 2000 -->
      <g transform="translate(16.94 293.03338) scale(0.1 -0.1)">
       <use xlink:href="#DejaVuSans-32"/>
       <use xlink:href="#DejaVuSans-30" x="63.623047"/>
       <use xlink:href="#DejaVuSans-30" x="127.246094"/>
       <use xlink:href="#DejaVuSans-30" x="190.869141"/>
      </g>
     </g>
    </g>
    <g id="ytick_14">
     <g id="line2d_35">
      <g>
       <use xlink:href="#m5dc9e198ed" x="49.39" y="254.925346" style="stroke: #000000; stroke-width: 0.8"/>
      </g>
     </g>
     <g id="text_32">
      <!-- 4000 -->
      <g transform="translate(16.94 258.724564) scale(0.1 -0.1)">
       <use xlink:href="#DejaVuSans-34"/>
       <use xlink:href="#DejaVuSans-30" x="63.623047"/>
       <use xlink:href="#DejaVuSans-30" x="127.246094"/>
       <use xlink:href="#DejaVuSans-30" x="190.869141"/>
      </g>
     </g>
    </g>
    <g id="ytick_15">
     <g id="line2d_36">
      <g>
       <use xlink:href="#m5dc9e198ed" x="49.39" y="220.61653" style="stroke: #000000; stroke-width: 0.8"/>
      </g>
     </g>
     <g id="text_33">
      <!-- 6000 -->
      <g transform="translate(16.94 224.415749) scale(0.1 -0.1)">
       <use xlink:href="#DejaVuSans-36"/>
       <use xlink:href="#DejaVuSans-30" x="63.623047"/>
       <use xlink:href="#DejaVuSans-30" x="127.246094"/>
       <use xlink:href="#DejaVuSans-30" x="190.869141"/>
      </g>
     </g>
    </g>
    <g id="ytick_16">
     <g id="line2d_37">
      <g>
       <use xlink:href="#m5dc9e198ed" x="49.39" y="186.307715" style="stroke: #000000; stroke-width: 0.8"/>
      </g>
     </g>
     <g id="text_34">
      <!-- 8000 -->
      <g transform="translate(16.94 190.106934) scale(0.1 -0.1)">
       <use xlink:href="#DejaVuSans-38"/>
       <use xlink:href="#DejaVuSans-30" x="63.623047"/>
       <use xlink:href="#DejaVuSans-30" x="127.246094"/>
       <use xlink:href="#DejaVuSans-30" x="190.869141"/>
      </g>
     </g>
    </g>
    <g id="ytick_17">
     <g id="line2d_38">
      <g>
       <use xlink:href="#m5dc9e198ed" x="49.39" y="151.9989" style="stroke: #000000; stroke-width: 0.8"/>
      </g>
     </g>
     <g id="text_35">
      <!-- 10000 -->
      <g transform="translate(10.5775 155.798118) scale(0.1 -0.1)">
       <use xlink:href="#DejaVuSans-31"/>
       <use xlink:href="#DejaVuSans-30" x="63.623047"/>
       <use xlink:href="#DejaVuSans-30" x="127.246094"/>
       <use xlink:href="#DejaVuSans-30" x="190.869141"/>
       <use xlink:href="#DejaVuSans-30" x="254.492188"/>
      </g>
     </g>
    </g>
   </g>
   <g id="line2d_39">
    <path d="M 63.251992 323.542805 
L 70.189927 323.427012 
L 77.127861 323.09679 
L 84.065795 322.552138 
L 91.281246 321.758232 
L 98.496698 320.732398 
L 105.71215 319.474637 
L 112.927601 317.984948 
L 120.143053 316.263332 
L 127.358504 314.309788 
L 134.573956 312.124316 
L 141.789407 309.706917 
L 149.004859 307.057591 
L 156.22031 304.176336 
L 163.435762 301.063154 
L 170.928731 297.584755 
L 178.4217 293.856245 
L 185.914668 289.877623 
L 193.407637 285.64889 
L 200.900606 281.170045 
L 208.671092 276.26114 
L 216.441579 271.083254 
L 224.212065 265.636386 
L 231.982551 259.920538 
L 239.753038 253.935708 
L 247.801041 247.453572 
L 255.849045 240.682899 
L 263.897048 233.623688 
L 271.945052 226.275941 
L 280.270573 218.37119 
L 288.596094 210.157659 
L 296.921615 201.63535 
L 305.524653 192.504573 
L 314.127692 183.044089 
L 322.73073 173.253897 
L 331.333768 163.133997 
L 340.214324 152.341816 
L 340.491842 151.9989 
L 340.491842 151.9989 
" clip-path="url(#p42728ea065)" style="fill: none; stroke: #ff0000; stroke-width: 1.5; stroke-linecap: square"/>
   </g>
   <g id="patch_18">
    <path d="M 49.39 332.12 
L 49.39 143.421704 
" style="fill: none; stroke: #000000; stroke-width: 0.8; stroke-linejoin: miter; stroke-linecap: square"/>
   </g>
   <g id="patch_19">
    <path d="M 354.353834 332.12 
L 354.353834 143.421704 
" style="fill: none; stroke: #000000; stroke-width: 0.8; stroke-linejoin: miter; stroke-linecap: square"/>
   </g>
   <g id="patch_20">
    <path d="M 49.39 332.12 
L 354.353834 332.12 
" style="fill: none; stroke: #000000; stroke-width: 0.8; stroke-linejoin: miter; stroke-linecap: square"/>
   </g>
   <g id="patch_21">
    <path d="M 49.39 143.421704 
L 354.353834 143.421704 
" style="fill: none; stroke: #000000; stroke-width: 0.8; stroke-linejoin: miter; stroke-linecap: square"/>
   </g>
  </g>
  <g id="axes_5">
   <g id="patch_22">
    <path d="M 400.255 332.12 
L 529.786334 332.12 
L 529.786334 251.837911 
L 400.255 251.837911 
z
" style="fill: #ffffff"/>
   </g>
   <g id="matplotlib.axis_9">
    <g id="xtick_19">
     <g id="line2d_40">
      <g>
       <use xlink:href="#m04e4b8a39d" x="406.024914" y="332.12" style="stroke: #000000; stroke-width: 0.8"/>
      </g>
     </g>
     <g id="text_36">
      <!-- 0 -->
      <g transform="translate(402.843664 346.718437) scale(0.1 -0.1)">
       <use xlink:href="#DejaVuSans-30"/>
      </g>
     </g>
    </g>
    <g id="xtick_20">
     <g id="line2d_41">
      <g>
       <use xlink:href="#m04e4b8a39d" x="464.96173" y="332.12" style="stroke: #000000; stroke-width: 0.8"/>
      </g>
     </g>
     <g id="text_37">
      <!-- 50 -->
      <g transform="translate(458.59923 346.718437) scale(0.1 -0.1)">
       <use xlink:href="#DejaVuSans-35"/>
       <use xlink:href="#DejaVuSans-30" x="63.623047"/>
      </g>
     </g>
    </g>
    <g id="xtick_21">
     <g id="line2d_42">
      <g>
       <use xlink:href="#m04e4b8a39d" x="523.898546" y="332.12" style="stroke: #000000; stroke-width: 0.8"/>
      </g>
     </g>
     <g id="text_38">
      <!-- 100 -->
      <g transform="translate(514.354796 346.718437) scale(0.1 -0.1)">
       <use xlink:href="#DejaVuSans-31"/>
       <use xlink:href="#DejaVuSans-30" x="63.623047"/>
       <use xlink:href="#DejaVuSans-30" x="127.246094"/>
      </g>
     </g>
    </g>
   </g>
   <g id="matplotlib.axis_10">
    <g id="ytick_18">
     <g id="line2d_43">
      <g>
       <use xlink:href="#m5dc9e198ed" x="400.255" y="330.854129" style="stroke: #000000; stroke-width: 0.8"/>
      </g>
     </g>
     <g id="text_39">
      <!-- 0 -->
      <g transform="translate(386.8925 334.653348) scale(0.1 -0.1)">
       <use xlink:href="#DejaVuSans-30"/>
      </g>
     </g>
    </g>
    <g id="ytick_19">
     <g id="line2d_44">
      <g>
       <use xlink:href="#m5dc9e198ed" x="400.255" y="293.170613" style="stroke: #000000; stroke-width: 0.8"/>
      </g>
     </g>
     <g id="text_40">
      <!-- 5 -->
      <g transform="translate(386.8925 296.969832) scale(0.1 -0.1)">
       <use xlink:href="#DejaVuSans-35"/>
      </g>
     </g>
    </g>
    <g id="ytick_20">
     <g id="line2d_45">
      <g>
       <use xlink:href="#m5dc9e198ed" x="400.255" y="255.487097" style="stroke: #000000; stroke-width: 0.8"/>
      </g>
     </g>
     <g id="text_41">
      <!-- 10 -->
      <g transform="translate(380.53 259.286316) scale(0.1 -0.1)">
       <use xlink:href="#DejaVuSans-31"/>
       <use xlink:href="#DejaVuSans-30" x="63.623047"/>
      </g>
     </g>
    </g>
   </g>
   <g id="line2d_46">
    <path d="M 406.142788 328.470814 
L 406.496409 326.087499 
L 407.085777 323.704184 
L 407.910892 321.32087 
L 408.971755 318.937555 
L 410.268365 316.55424 
L 411.918596 314.001548 
L 413.804574 311.491988 
L 416.044173 308.881052 
L 418.637393 306.200929 
L 421.584234 303.471926 
L 425.002569 300.613254 
L 428.892399 297.658395 
L 433.253723 294.63088 
L 438.086542 291.547494 
L 443.508729 288.353538 
L 449.520284 285.072146 
L 456.239081 281.663065 
L 463.66512 278.151068 
L 471.798401 274.55541 
L 480.756797 270.843795 
L 490.540308 267.036452 
L 501.148935 263.149528 
L 512.700551 259.15635 
L 523.898546 255.487097 
L 523.898546 255.487097 
" clip-path="url(#pb8e73976b7)" style="fill: none; stroke: #008000; stroke-width: 1.5; stroke-linecap: square"/>
   </g>
   <g id="patch_23">
    <path d="M 400.255 332.12 
L 400.255 251.837911 
" style="fill: none; stroke: #000000; stroke-width: 0.8; stroke-linejoin: miter; stroke-linecap: square"/>
   </g>
   <g id="patch_24">
    <path d="M 529.786334 332.12 
L 529.786334 251.837911 
" style="fill: none; stroke: #000000; stroke-width: 0.8; stroke-linejoin: miter; stroke-linecap: square"/>
   </g>
   <g id="patch_25">
    <path d="M 400.255 332.12 
L 529.786334 332.12 
" style="fill: none; stroke: #000000; stroke-width: 0.8; stroke-linejoin: miter; stroke-linecap: square"/>
   </g>
   <g id="patch_26">
    <path d="M 400.255 251.837911 
L 529.786334 251.837911 
" style="fill: none; stroke: #000000; stroke-width: 0.8; stroke-linejoin: miter; stroke-linecap: square"/>
   </g>
  </g>
  <g id="axes_6">
   <g id="patch_27">
    <path d="M 575.6875 332.12 
L 705.218834 332.12 
L 705.218834 251.837911 
L 575.6875 251.837911 
z
" style="fill: #ffffff"/>
   </g>
   <g id="matplotlib.axis_11">
    <g id="xtick_22">
     <g id="line2d_47">
      <g>
       <use xlink:href="#m04e4b8a39d" x="581.457414" y="332.12" style="stroke: #000000; stroke-width: 0.8"/>
      </g>
     </g>
     <g id="text_42">
      <!-- 0 -->
      <g transform="translate(578.276164 346.718437) scale(0.1 -0.1)">
       <use xlink:href="#DejaVuSans-30"/>
      </g>
     </g>
    </g>
    <g id="xtick_23">
     <g id="line2d_48">
      <g>
       <use xlink:href="#m04e4b8a39d" x="640.39423" y="332.12" style="stroke: #000000; stroke-width: 0.8"/>
      </g>
     </g>
     <g id="text_43">
      <!-- 50 -->
      <g transform="translate(634.03173 346.718437) scale(0.1 -0.1)">
       <use xlink:href="#DejaVuSans-35"/>
       <use xlink:href="#DejaVuSans-30" x="63.623047"/>
      </g>
     </g>
    </g>
    <g id="xtick_24">
     <g id="line2d_49">
      <g>
       <use xlink:href="#m04e4b8a39d" x="699.331046" y="332.12" style="stroke: #000000; stroke-width: 0.8"/>
      </g>
     </g>
     <g id="text_44">
      <!-- 100 -->
      <g transform="translate(689.787296 346.718437) scale(0.1 -0.1)">
       <use xlink:href="#DejaVuSans-31"/>
       <use xlink:href="#DejaVuSans-30" x="63.623047"/>
       <use xlink:href="#DejaVuSans-30" x="127.246094"/>
      </g>
     </g>
    </g>
   </g>
   <g id="matplotlib.axis_12">
    <g id="ytick_21">
     <g id="line2d_50">
      <g>
       <use xlink:href="#m5dc9e198ed" x="575.6875" y="330.854129" style="stroke: #000000; stroke-width: 0.8"/>
      </g>
     </g>
     <g id="text_45">
      <!-- 0 -->
      <g transform="translate(562.325 334.653348) scale(0.1 -0.1)">
       <use xlink:href="#DejaVuSans-30"/>
      </g>
     </g>
    </g>
    <g id="ytick_22">
     <g id="line2d_51">
      <g>
       <use xlink:href="#m5dc9e198ed" x="575.6875" y="307.020981" style="stroke: #000000; stroke-width: 0.8"/>
      </g>
     </g>
     <g id="text_46">
      <!-- 1 -->
      <g transform="translate(562.325 310.8202) scale(0.1 -0.1)">
       <use xlink:href="#DejaVuSans-31"/>
      </g>
     </g>
    </g>
    <g id="ytick_23">
     <g id="line2d_52">
      <g>
       <use xlink:href="#m5dc9e198ed" x="575.6875" y="283.187833" style="stroke: #000000; stroke-width: 0.8"/>
      </g>
     </g>
     <g id="text_47">
      <!-- 2 -->
      <g transform="translate(562.325 286.987051) scale(0.1 -0.1)">
       <use xlink:href="#DejaVuSans-32"/>
      </g>
     </g>
    </g>
    <g id="ytick_24">
     <g id="line2d_53">
      <g>
       <use xlink:href="#m5dc9e198ed" x="575.6875" y="259.354684" style="stroke: #000000; stroke-width: 0.8"/>
      </g>
     </g>
     <g id="text_48">
      <!-- 3 -->
      <g transform="translate(562.325 263.153903) scale(0.1 -0.1)">
       <defs>
        <path id="DejaVuSans-33" d="M 2597 2516 
Q 3050 2419 3304 2112 
Q 3559 1806 3559 1356 
Q 3559 666 3084 287 
Q 2609 -91 1734 -91 
Q 1441 -91 1130 -33 
Q 819 25 488 141 
L 488 750 
Q 750 597 1062 519 
Q 1375 441 1716 441 
Q 2309 441 2620 675 
Q 2931 909 2931 1356 
Q 2931 1769 2642 2001 
Q 2353 2234 1838 2234 
L 1294 2234 
L 1294 2753 
L 1863 2753 
Q 2328 2753 2575 2939 
Q 2822 3125 2822 3475 
Q 2822 3834 2567 4026 
Q 2313 4219 1838 4219 
Q 1578 4219 1281 4162 
Q 984 4106 628 3988 
L 628 4550 
Q 988 4650 1302 4700 
Q 1616 4750 1894 4750 
Q 2613 4750 3031 4423 
Q 3450 4097 3450 3541 
Q 3450 3153 3228 2886 
Q 3006 2619 2597 2516 
z
" transform="scale(0.015625)"/>
       </defs>
       <use xlink:href="#DejaVuSans-33"/>
      </g>
     </g>
    </g>
   </g>
   <g id="line2d_54">
    <path d="M 581.575288 255.487097 
L 581.811035 287.340953 
L 582.164656 300.085667 
L 582.518277 305.731785 
L 582.989771 309.951075 
L 583.57914 313.089949 
L 584.168508 315.139016 
L 584.87575 316.858822 
L 585.700865 318.292957 
L 586.643854 319.492121 
L 587.704717 320.501671 
L 589.001327 321.43325 
L 590.533684 322.265259 
L 592.419662 323.038932 
L 594.777135 323.764195 
L 597.841849 324.461581 
L 601.731679 325.107447 
L 606.800245 325.71414 
L 613.519042 326.284331 
L 622.595312 326.819824 
L 635.089917 327.320868 
L 652.653088 327.787488 
L 677.878045 328.218982 
L 699.331046 328.470814 
L 699.331046 328.470814 
" clip-path="url(#pfb1656fadb)" style="fill: none; stroke: #0000ff; stroke-width: 1.5; stroke-linecap: square"/>
   </g>
   <g id="patch_28">
    <path d="M 575.6875 332.12 
L 575.6875 251.837911 
" style="fill: none; stroke: #000000; stroke-width: 0.8; stroke-linejoin: miter; stroke-linecap: square"/>
   </g>
   <g id="patch_29">
    <path d="M 705.218834 332.12 
L 705.218834 251.837911 
" style="fill: none; stroke: #000000; stroke-width: 0.8; stroke-linejoin: miter; stroke-linecap: square"/>
   </g>
   <g id="patch_30">
    <path d="M 575.6875 332.12 
L 705.218834 332.12 
" style="fill: none; stroke: #000000; stroke-width: 0.8; stroke-linejoin: miter; stroke-linecap: square"/>
   </g>
   <g id="patch_31">
    <path d="M 575.6875 251.837911 
L 705.218834 251.837911 
" style="fill: none; stroke: #000000; stroke-width: 0.8; stroke-linejoin: miter; stroke-linecap: square"/>
   </g>
  </g>
  <g id="text_49">
   <!-- Easy subplotting with subplot_mosaic -->
   <g transform="translate(247.018125 16.318125) scale(0.12 -0.12)">
    <defs>
     <path id="DejaVuSans-45" d="M 628 4666 
L 3578 4666 
L 3578 4134 
L 1259 4134 
L 1259 2753 
L 3481 2753 
L 3481 2222 
L 1259 2222 
L 1259 531 
L 3634 531 
L 3634 0 
L 628 0 
L 628 4666 
z
" transform="scale(0.015625)"/>
     <path id="DejaVuSans-61" d="M 2194 1759 
Q 1497 1759 1228 1600 
Q 959 1441 959 1056 
Q 959 750 1161 570 
Q 1363 391 1709 391 
Q 2188 391 2477 730 
Q 2766 1069 2766 1631 
L 2766 1759 
L 2194 1759 
z
M 3341 1997 
L 3341 0 
L 2766 0 
L 2766 531 
Q 2569 213 2275 61 
Q 1981 -91 1556 -91 
Q 1019 -91 701 211 
Q 384 513 384 1019 
Q 384 1609 779 1909 
Q 1175 2209 1959 2209 
L 2766 2209 
L 2766 2266 
Q 2766 2663 2505 2880 
Q 2244 3097 1772 3097 
Q 1472 3097 1187 3025 
Q 903 2953 641 2809 
L 641 3341 
Q 956 3463 1253 3523 
Q 1550 3584 1831 3584 
Q 2591 3584 2966 3190 
Q 3341 2797 3341 1997 
z
" transform="scale(0.015625)"/>
     <path id="DejaVuSans-73" d="M 2834 3397 
L 2834 2853 
Q 2591 2978 2328 3040 
Q 2066 3103 1784 3103 
Q 1356 3103 1142 2972 
Q 928 2841 928 2578 
Q 928 2378 1081 2264 
Q 1234 2150 1697 2047 
L 1894 2003 
Q 2506 1872 2764 1633 
Q 3022 1394 3022 966 
Q 3022 478 2636 193 
Q 2250 -91 1575 -91 
Q 1294 -91 989 -36 
Q 684 19 347 128 
L 347 722 
Q 666 556 975 473 
Q 1284 391 1588 391 
Q 1994 391 2212 530 
Q 2431 669 2431 922 
Q 2431 1156 2273 1281 
Q 2116 1406 1581 1522 
L 1381 1569 
Q 847 1681 609 1914 
Q 372 2147 372 2553 
Q 372 3047 722 3315 
Q 1072 3584 1716 3584 
Q 2034 3584 2315 3537 
Q 2597 3491 2834 3397 
z
" transform="scale(0.015625)"/>
     <path id="DejaVuSans-79" d="M 2059 -325 
Q 1816 -950 1584 -1140 
Q 1353 -1331 966 -1331 
L 506 -1331 
L 506 -850 
L 844 -850 
Q 1081 -850 1212 -737 
Q 1344 -625 1503 -206 
L 1606 56 
L 191 3500 
L 800 3500 
L 1894 763 
L 2988 3500 
L 3597 3500 
L 2059 -325 
z
" transform="scale(0.015625)"/>
     <path id="DejaVuSans-20" transform="scale(0.015625)"/>
     <path id="DejaVuSans-75" d="M 544 1381 
L 544 3500 
L 1119 3500 
L 1119 1403 
Q 1119 906 1312 657 
Q 1506 409 1894 409 
Q 2359 409 2629 706 
Q 2900 1003 2900 1516 
L 2900 3500 
L 3475 3500 
L 3475 0 
L 2900 0 
L 2900 538 
Q 2691 219 2414 64 
Q 2138 -91 1772 -91 
Q 1169 -91 856 284 
Q 544 659 544 1381 
z
M 1991 3584 
L 1991 3584 
z
" transform="scale(0.015625)"/>
     <path id="DejaVuSans-62" d="M 3116 1747 
Q 3116 2381 2855 2742 
Q 2594 3103 2138 3103 
Q 1681 3103 1420 2742 
Q 1159 2381 1159 1747 
Q 1159 1113 1420 752 
Q 1681 391 2138 391 
Q 2594 391 2855 752 
Q 3116 1113 3116 1747 
z
M 1159 2969 
Q 1341 3281 1617 3432 
Q 1894 3584 2278 3584 
Q 2916 3584 3314 3078 
Q 3713 2572 3713 1747 
Q 3713 922 3314 415 
Q 2916 -91 2278 -91 
Q 1894 -91 1617 61 
Q 1341 213 1159 525 
L 1159 0 
L 581 0 
L 581 4863 
L 1159 4863 
L 1159 2969 
z
" transform="scale(0.015625)"/>
     <path id="DejaVuSans-70" d="M 1159 525 
L 1159 -1331 
L 581 -1331 
L 581 3500 
L 1159 3500 
L 1159 2969 
Q 1341 3281 1617 3432 
Q 1894 3584 2278 3584 
Q 2916 3584 3314 3078 
Q 3713 2572 3713 1747 
Q 3713 922 3314 415 
Q 2916 -91 2278 -91 
Q 1894 -91 1617 61 
Q 1341 213 1159 525 
z
M 3116 1747 
Q 3116 2381 2855 2742 
Q 2594 3103 2138 3103 
Q 1681 3103 1420 2742 
Q 1159 2381 1159 1747 
Q 1159 1113 1420 752 
Q 1681 391 2138 391 
Q 2594 391 2855 752 
Q 3116 1113 3116 1747 
z
" transform="scale(0.015625)"/>
     <path id="DejaVuSans-6c" d="M 603 4863 
L 1178 4863 
L 1178 0 
L 603 0 
L 603 4863 
z
" transform="scale(0.015625)"/>
     <path id="DejaVuSans-6f" d="M 1959 3097 
Q 1497 3097 1228 2736 
Q 959 2375 959 1747 
Q 959 1119 1226 758 
Q 1494 397 1959 397 
Q 2419 397 2687 759 
Q 2956 1122 2956 1747 
Q 2956 2369 2687 2733 
Q 2419 3097 1959 3097 
z
M 1959 3584 
Q 2709 3584 3137 3096 
Q 3566 2609 3566 1747 
Q 3566 888 3137 398 
Q 2709 -91 1959 -91 
Q 1206 -91 779 398 
Q 353 888 353 1747 
Q 353 2609 779 3096 
Q 1206 3584 1959 3584 
z
" transform="scale(0.015625)"/>
     <path id="DejaVuSans-74" d="M 1172 4494 
L 1172 3500 
L 2356 3500 
L 2356 3053 
L 1172 3053 
L 1172 1153 
Q 1172 725 1289 603 
Q 1406 481 1766 481 
L 2356 481 
L 2356 0 
L 1766 0 
Q 1100 0 847 248 
Q 594 497 594 1153 
L 594 3053 
L 172 3053 
L 172 3500 
L 594 3500 
L 594 4494 
L 1172 4494 
z
" transform="scale(0.015625)"/>
     <path id="DejaVuSans-69" d="M 603 3500 
L 1178 3500 
L 1178 0 
L 603 0 
L 603 3500 
z
M 603 4863 
L 1178 4863 
L 1178 4134 
L 603 4134 
L 603 4863 
z
" transform="scale(0.015625)"/>
     <path id="DejaVuSans-6e" d="M 3513 2113 
L 3513 0 
L 2938 0 
L 2938 2094 
Q 2938 2591 2744 2837 
Q 2550 3084 2163 3084 
Q 1697 3084 1428 2787 
Q 1159 2491 1159 1978 
L 1159 0 
L 581 0 
L 581 3500 
L 1159 3500 
L 1159 2956 
Q 1366 3272 1645 3428 
Q 1925 3584 2291 3584 
Q 2894 3584 3203 3211 
Q 3513 2838 3513 2113 
z
" transform="scale(0.015625)"/>
     <path id="DejaVuSans-67" d="M 2906 1791 
Q 2906 2416 2648 2759 
Q 2391 3103 1925 3103 
Q 1463 3103 1205 2759 
Q 947 2416 947 1791 
Q 947 1169 1205 825 
Q 1463 481 1925 481 
Q 2391 481 2648 825 
Q 2906 1169 2906 1791 
z
M 3481 434 
Q 3481 -459 3084 -895 
Q 2688 -1331 1869 -1331 
Q 1566 -1331 1297 -1286 
Q 1028 -1241 775 -1147 
L 775 -588 
Q 1028 -725 1275 -790 
Q 1522 -856 1778 -856 
Q 2344 -856 2625 -561 
Q 2906 -266 2906 331 
L 2906 616 
Q 2728 306 2450 153 
Q 2172 0 1784 0 
Q 1141 0 747 490 
Q 353 981 353 1791 
Q 353 2603 747 3093 
Q 1141 3584 1784 3584 
Q 2172 3584 2450 3431 
Q 2728 3278 2906 2969 
L 2906 3500 
L 3481 3500 
L 3481 434 
z
" transform="scale(0.015625)"/>
     <path id="DejaVuSans-77" d="M 269 3500 
L 844 3500 
L 1563 769 
L 2278 3500 
L 2956 3500 
L 3675 769 
L 4391 3500 
L 4966 3500 
L 4050 0 
L 3372 0 
L 2619 2869 
L 1863 0 
L 1184 0 
L 269 3500 
z
" transform="scale(0.015625)"/>
     <path id="DejaVuSans-68" d="M 3513 2113 
L 3513 0 
L 2938 0 
L 2938 2094 
Q 2938 2591 2744 2837 
Q 2550 3084 2163 3084 
Q 1697 3084 1428 2787 
Q 1159 2491 1159 1978 
L 1159 0 
L 581 0 
L 581 4863 
L 1159 4863 
L 1159 2956 
Q 1366 3272 1645 3428 
Q 1925 3584 2291 3584 
Q 2894 3584 3203 3211 
Q 3513 2838 3513 2113 
z
" transform="scale(0.015625)"/>
     <path id="DejaVuSans-5f" d="M 3263 -1063 
L 3263 -1509 
L -63 -1509 
L -63 -1063 
L 3263 -1063 
z
" transform="scale(0.015625)"/>
     <path id="DejaVuSans-6d" d="M 3328 2828 
Q 3544 3216 3844 3400 
Q 4144 3584 4550 3584 
Q 5097 3584 5394 3201 
Q 5691 2819 5691 2113 
L 5691 0 
L 5113 0 
L 5113 2094 
Q 5113 2597 4934 2840 
Q 4756 3084 4391 3084 
Q 3944 3084 3684 2787 
Q 3425 2491 3425 1978 
L 3425 0 
L 2847 0 
L 2847 2094 
Q 2847 2600 2669 2842 
Q 2491 3084 2119 3084 
Q 1678 3084 1418 2786 
Q 1159 2488 1159 1978 
L 1159 0 
L 581 0 
L 581 3500 
L 1159 3500 
L 1159 2956 
Q 1356 3278 1631 3431 
Q 1906 3584 2284 3584 
Q 2666 3584 2933 3390 
Q 3200 3197 3328 2828 
z
" transform="scale(0.015625)"/>
     <path id="DejaVuSans-63" d="M 3122 3366 
L 3122 2828 
Q 2878 2963 2633 3030 
Q 2388 3097 2138 3097 
Q 1578 3097 1268 2742 
Q 959 2388 959 1747 
Q 959 1106 1268 751 
Q 1578 397 2138 397 
Q 2388 397 2633 464 
Q 2878 531 3122 666 
L 3122 134 
Q 2881 22 2623 -34 
Q 2366 -91 2075 -91 
Q 1284 -91 818 406 
Q 353 903 353 1747 
Q 353 2603 823 3093 
Q 1294 3584 2113 3584 
Q 2378 3584 2631 3529 
Q 2884 3475 3122 3366 
z
" transform="scale(0.015625)"/>
    </defs>
    <use xlink:href="#DejaVuSans-45"/>
    <use xlink:href="#DejaVuSans-61" x="63.183594"/>
    <use xlink:href="#DejaVuSans-73" x="124.462891"/>
    <use xlink:href="#DejaVuSans-79" x="176.5625"/>
    <use xlink:href="#DejaVuSans-20" x="235.742188"/>
    <use xlink:href="#DejaVuSans-73" x="267.529297"/>
    <use xlink:href="#DejaVuSans-75" x="319.628906"/>
    <use xlink:href="#DejaVuSans-62" x="383.007812"/>
    <use xlink:href="#DejaVuSans-70" x="446.484375"/>
    <use xlink:href="#DejaVuSans-6c" x="509.960938"/>
    <use xlink:href="#DejaVuSans-6f" x="537.744141"/>
    <use xlink:href="#DejaVuSans-74" x="598.925781"/>
    <use xlink:href="#DejaVuSans-74" x="638.134766"/>
    <use xlink:href="#DejaVuSans-69" x="677.34375"/>
    <use xlink:href="#DejaVuSans-6e" x="705.126953"/>
    <use xlink:href="#DejaVuSans-67" x="768.505859"/>
    <use xlink:href="#DejaVuSans-20" x="831.982422"/>
    <use xlink:href="#DejaVuSans-77" x="863.769531"/>
    <use xlink:href="#DejaVuSans-69" x="945.556641"/>
    <use xlink:href="#DejaVuSans-74" x="973.339844"/>
    <use xlink:href="#DejaVuSans-68" x="1012.548828"/>
    <use xlink:href="#DejaVuSans-20" x="1075.927734"/>
    <use xlink:href="#DejaVuSans-73" x="1107.714844"/>
    <use xlink:href="#DejaVuSans-75" x="1159.814453"/>
    <use xlink:href="#DejaVuSans-62" x="1223.193359"/>
    <use xlink:href="#DejaVuSans-70" x="1286.669922"/>
    <use xlink:href="#DejaVuSans-6c" x="1350.146484"/>
    <use xlink:href="#DejaVuSans-6f" x="1377.929688"/>
    <use xlink:href="#DejaVuSans-74" x="1439.111328"/>
    <use xlink:href="#DejaVuSans-5f" x="1478.320312"/>
    <use xlink:href="#DejaVuSans-6d" x="1528.320312"/>
    <use xlink:href="#DejaVuSans-6f" x="1625.732422"/>
    <use xlink:href="#DejaVuSans-73" x="1686.914062"/>
    <use xlink:href="#DejaVuSans-61" x="1739.013672"/>
    <use xlink:href="#DejaVuSans-69" x="1800.292969"/>
    <use xlink:href="#DejaVuSans-63" x="1828.076172"/>
   </g>
  </g>
 </g>
 <defs>
  <clipPath id="p5847522d2c">
   <rect x="49.39" y="35.005498" width="129.531334" height="80.282089"/>
  </clipPath>
  <clipPath id="p254e12d106">
   <rect x="224.8225" y="35.005498" width="129.531334" height="80.282089"/>
  </clipPath>
  <clipPath id="p5641325b50">
   <rect x="400.255" y="35.005498" width="304.963834" height="188.698296"/>
  </clipPath>
  <clipPath id="p42728ea065">
   <rect x="49.39" y="143.421704" width="304.963834" height="188.698296"/>
  </clipPath>
  <clipPath id="pb8e73976b7">
   <rect x="400.255" y="251.837911" width="129.531334" height="80.282089"/>
  </clipPath>
  <clipPath id="pfb1656fadb">
   <rect x="575.6875" y="251.837911" width="129.531334" height="80.282089"/>
  </clipPath>
 </defs>
</svg>
